<svg width="800" height="800" viewBox="0 0 800 800" fill="none" xmlns="http://www.w3.org/2000/svg">
<g clip-path="url(#clip0_9649_9)">
<mask id="mask0_9649_9" style="mask-type:alpha" maskUnits="userSpaceOnUse" x="0" y="0" width="800" height="800">
<rect width="800" height="800" rx="400" fill="white"/>
</mask>
<g mask="url(#mask0_9649_9)">
<rect width="800" height="800" rx="400" fill="white"/>
<path opacity="0.1" d="M838.955 148.342L890.461 258.636C893.533 264.522 895.403 270.961 895.961 277.577C896.518 284.194 895.753 290.855 893.708 297.172C891.664 303.49 888.382 309.336 884.054 314.372C879.726 319.407 874.439 323.53 868.5 326.501L676 422.501L627.5 480.501L492 384.001L394.5 437.089L299.088 384.001L447.5 226.001H580L772.274 126.763C784.009 120.961 797.545 119.97 810 124.001C822.455 128.031 832.844 136.765 838.955 148.342Z" fill="black"/>
<path opacity="0.25" d="M625 477.692L510.009 592.683C506.956 595.736 503.165 597.946 499.005 599.098C494.844 600.251 490.456 600.306 486.268 599.259L305.153 553.98C301.756 553.131 298.575 551.577 295.816 549.42L125 415.849L-141 303L-29.5 101L226.795 224.343L387.17 177.588C392.899 175.918 399.036 176.352 404.473 178.812L512.5 227.692H447.855C444.572 227.692 441.321 228.339 438.288 229.595C435.255 230.851 432.499 232.693 430.178 235.014L307.883 357.309C305.35 359.842 303.391 362.89 302.139 366.245C300.886 369.601 300.369 373.187 300.623 376.759C300.877 380.332 301.896 383.809 303.61 386.953C305.325 390.098 307.695 392.838 310.56 394.987L327.5 407.692C344.81 420.674 365.863 427.692 387.5 427.692C409.137 427.692 430.191 420.674 447.5 407.692L487.5 377.692L625 477.692Z" fill="black"/>
<path opacity="0.5" d="M374.252 671.256C373.46 674.443 372.047 677.442 370.093 680.082C368.14 682.722 365.685 684.951 362.868 686.641C360.052 688.33 356.93 689.448 353.682 689.929C350.433 690.41 347.121 690.245 343.936 689.444L249.75 665.9C242.108 663.978 235.025 660.288 229.071 655.127L158.6 593.869C153.596 589.52 150.524 583.36 150.061 576.746C149.598 570.132 151.782 563.604 156.131 558.6C160.481 553.596 166.64 550.524 173.254 550.061C179.869 549.598 186.396 551.782 191.4 556.131L261.878 617.392L356.064 640.939C359.249 641.735 362.246 643.151 364.884 645.105C367.522 647.06 369.749 649.515 371.438 652.33C373.127 655.145 374.245 658.266 374.728 661.513C375.211 664.76 375.049 668.071 374.252 671.256Z" fill="black"/>
<path d="M1024.03 214.635L947.181 67.4587C941.07 55.8814 930.681 47.1474 918.226 43.1168C905.771 39.0862 892.235 40.0775 880.5 45.8797L569.102 202.691H517.893L414.778 156.033C403.903 151.119 391.631 150.251 380.174 153.587L228.074 197.929L27.0001 103.013C15.2642 97.2156 1.72907 96.2264 -10.7251 100.256C-23.1792 104.286 -33.5691 113.017 -39.6839 124.591L-116.536 271.769C-119.609 277.655 -121.479 284.094 -122.036 290.711C-122.594 297.327 -121.828 303.988 -119.784 310.305C-117.74 316.622 -114.458 322.469 -110.13 327.505C-105.802 332.54 -100.514 336.663 -94.5759 339.633L111.576 437.089L280.415 569.113C285.927 573.435 292.291 576.542 299.089 578.232L480.204 623.509C484.134 624.491 488.169 624.987 492.219 624.986C505.51 624.989 518.262 619.732 527.69 610.363L642.68 495.369C642.802 495.247 642.912 495.114 643.031 494.99C643.188 494.826 643.341 494.658 643.495 494.489C643.662 494.303 643.841 494.127 644.004 493.937L690.713 439.294L1002.07 282.5C1008.01 279.53 1013.3 275.407 1017.63 270.371C1021.96 265.336 1025.24 259.489 1027.28 253.171C1029.33 246.854 1030.09 240.192 1029.53 233.576C1028.98 226.96 1027.11 220.521 1024.03 214.635ZM621.014 443.881L502.205 357.474C497.881 354.329 492.663 352.652 487.317 352.692C481.971 352.731 476.778 354.484 472.502 357.692L432.502 387.693C419.495 397.37 403.714 402.596 387.501 402.596C371.289 402.596 355.508 397.37 342.5 387.693L325.563 374.988L447.856 252.692H512.37C512.408 252.692 512.446 252.698 512.486 252.698L512.571 252.692H559.851L645.021 415.797L621.014 443.881ZM4.63985 147.734L191.062 235.324L114.21 382.503L-72.2126 294.912L4.63985 147.734ZM492.332 575.006L311.216 529.728L156.795 408.975L241.908 245.977L394.169 201.588L418.231 212.476C416.203 213.952 414.288 215.577 412.501 217.337L290.205 339.633C285.14 344.699 281.222 350.794 278.718 357.505C276.213 364.216 275.18 371.387 275.688 378.533C276.196 385.678 278.233 392.631 281.661 398.92C285.09 405.21 289.83 410.689 295.561 414.988L312.501 427.692C334.18 443.822 360.48 452.533 387.501 452.533C414.522 452.533 440.823 443.822 462.501 427.692L487.73 408.771L586.636 480.702L492.332 575.006ZM979.71 237.779L685.792 385.853L608.94 238.673L902.857 90.6016L979.74 237.762L979.71 237.779Z" fill="black"/>
</g>
</g>
<defs>
<clipPath id="clip0_9649_9">
<rect width="800" height="800" fill="white"/>
</clipPath>
</defs>
</svg>
